<?xml version="1.0"?>
<svg xmlns="http://www.w3.org/2000/svg" viewBox="0 0 349.34 276.46">
  <defs>
    <style>.cls-1,.cls-4{fill:#fff;}.cls-1,.cls-3,.cls-6{stroke:#adc2e4;}.cls-1,.cls-3,.cls-4,.cls-6,.cls-7{stroke-linecap:round;stroke-linejoin:round;}.cls-1,.cls-3,.cls-4,.cls-7{stroke-width:3px;}.cls-2{fill:#eef6fa;}.cls-3,.cls-6,.cls-7{fill:none;}.cls-4,.cls-7{stroke:#8ba7d8;}.cls-5{fill:#f4f6f9;}.cls-6{stroke-width:6px;}</style>
  </defs>
  <title>anexo</title>
  <g id="Camada_2">
    <g id="Camada_1-2">
      <rect class="cls-1" x="13.72" y="69.74" width="122.88" height="169.48" rx="9.86" ry="9.86" transform="translate(-25.68 15.4) rotate(-10)"/>
      <path class="cls-2" d="M62.86,71.51,111.33,63a9.85,9.85,0,0,1,11.42,8l26,147.47a9.87,9.87,0,0,1-8,11.43L62.86,243.6Z"/>
      <rect class="cls-3" x="13.72" y="69.74" width="122.88" height="169.48" rx="9.86" ry="9.86" transform="translate(-25.68 15.4) rotate(-10)"/>
      <rect class="cls-1" x="212.74" y="69.74" width="122.88" height="169.48" rx="9.86" ry="9.86" transform="translate(30.99 -45.26) rotate(10)"/>
      <path class="cls-2" d="M287.27,71.51,238.8,63a9.85,9.85,0,0,0-11.42,8l-26,147.47a9.87,9.87,0,0,0,8,11.43l77.89,13.73Z"/>
      <rect class="cls-3" x="212.74" y="69.74" width="122.88" height="169.48" rx="9.86" ry="9.86" transform="translate(30.99 -45.26) rotate(10)"/>
      <path class="cls-2" d="M74.81,62.39c.31,0,.62,0,.93,0h46.5a15,15,0,0,0,15-15V.93c0-.31,0-.62,0-.93Z"/>
      <path class="cls-4" d="M258.54,2.23H136.85V46.79a15,15,0,0,1-15,15h-46V257a18,18,0,0,0,18,17.95H255.59a18,18,0,0,0,18-17.95V17.23A15,15,0,0,0,258.54,2.23Z"/>
      <line class="cls-4" x1="136.85" y1="2.23" x2="75.8" y2="61.79"/>
      <polygon class="cls-5" points="114.27 62.39 76.4 62.39 76.4 100.27 114.27 62.39"/>
      <path class="cls-6" d="M193.8,155.25V108.7c-1.7-8.63-8.74-15.21-17-15.9a19.51,19.51,0,0,0-20.44,15.9v65.85a15,15,0,0,0,28.39,0v-50a8.79,8.79,0,0,0-7.95-6.81,8.91,8.91,0,0,0-9.08,6.81v31.79"/>
      <path class="cls-7" d="M258.54,2.23H136.85V46.79a15,15,0,0,1-15,15h-46V257a18,18,0,0,0,18,17.95H255.59a18,18,0,0,0,18-17.95V17.23A15,15,0,0,0,258.54,2.23Z"/>
      <line class="cls-7" x1="136.85" y1="2.23" x2="75.8" y2="61.79"/>
    </g>
  </g>
</svg>
