<svg xmlns="http://www.w3.org/2000/svg" viewBox="0 0 135.14 242.58"><defs><style>.cls-1,.cls-13,.cls-6,.cls-9{fill:none;}.cls-2{fill:#e5e5e5;}.cls-3{fill:#f1f1f1;}.cls-4{fill:#cbcbcb;}.cls-5{fill:#333;}.cls-13,.cls-6{stroke:#29aae1;}.cls-13,.cls-6,.cls-9{stroke-miterlimit:10;}.cls-6{stroke-width:1.34px;}.cls-7{fill:#29aae1;}.cls-8{fill:#fff;}.cls-9{stroke:#4d4d4d;stroke-width:14.92px;}.cls-10{fill:#b2b2b2;}.cls-11{fill:#666;}.cls-12{fill:#4d4d4d;}.cls-13{stroke-linecap:round;stroke-width:3.97px;stroke-dasharray:0.01 5.29;}.cls-14{fill:#d3d3d3;}</style></defs><title>b-30-tour</title><g id="Camada_2" data-name="Camada 2"><g id="Layer_1" data-name="Layer 1"><path class="cls-1" d="M0,0V62.33c36.41,28.22,86.62,69.48,91.74,73.44,0,0-90,100.6-90.59,101.48A6.74,6.74,0,0,1,0,238v4.31H135.14V0Z"/><path class="cls-2" d="M91.74,135.77c-5.12-4-55.33-45.22-91.74-73.44V238a6.74,6.74,0,0,0,1.15-.76C1.78,236.37,91.74,135.77,91.74,135.77Z"/><path class="cls-1" d="M0,0V65.56c36.26,28.16,85.13,68.32,90.18,72.23-8,6.06-40.83-9.56-75.17-36.12C9.73,97.59,4.71,93.47,0,89.4V242.32H135.14V0Z"/><path class="cls-3" d="M90.18,137.79C85.13,133.88,36.26,93.72,0,65.56V89.4c4.71,4.07,9.73,8.19,15,12.27C49.35,128.23,82.14,143.85,90.18,137.79Z"/><path class="cls-1" d="M0,.25V62.33c36.41,28.22,86.62,69.48,91.74,73.44-8,6.07-40.83-9.56-75.17-36.11C10.69,95.12,5.15,90.54,0,86V242.58H135.14V.25Z"/><path class="cls-2" d="M91.74,135.77c-5.12-4-55.33-45.22-91.74-73.44V86c5.15,4.52,10.69,9.1,16.57,13.64C50.91,126.21,83.69,141.84,91.74,135.77Z"/><path class="cls-2" d="M93.68,133.26c.56-.8,1.1-1.61,1.63-2.42,13.72-21.18,13.72-21.18,9.1-69.51-1.51-15.81-3.23-17.25-29.28-37.39S47.24,2.48,31.56,5C17.43,7.27,7.46,8.86,0,10.47V81.79C5.69,86.86,11.9,92,18.52,97.14,52.85,123.7,85.64,139.32,93.68,133.26Z"/><path class="cls-3" d="M46.32,12.6c12.6-1.88,36.27,26.57,39.78,22l-8.83-6.86C51.21,7.62,49.38,6.32,33.84,8.65,18.15,11,7.64,12.59,0,14.3v7.76C8.32,17.18,26.33,15.58,46.32,12.6Z"/><path class="cls-4" d="M40.62,61.78A19.06,19.06,0,1,1,37.2,35,19.06,19.06,0,0,1,40.62,61.78Z"/><circle class="cls-4" cx="62.26" cy="78.51" r="19.06" transform="translate(-33.14 47.88) rotate(-33.78)"/><path d="M41.66,60.44a19.06,19.06,0,1,1-3.42-26.73A19.07,19.07,0,0,1,41.66,60.44Z"/><path class="cls-5" d="M40.91,41.73a15.77,15.77,0,0,0-26.75-2.94,15.49,15.49,0,0,0-2.54,4.81A22.64,22.64,0,0,1,40.91,41.73Z"/><path class="cls-6" d="M40.32,59.4A17.37,17.37,0,1,1,37.2,35,17.37,17.37,0,0,1,40.32,59.4Z"/><path class="cls-7" d="M30,59.85A10.07,10.07,0,1,1,28.2,45.72,10.08,10.08,0,0,1,30,59.85Z"/><path d="M23.93,57.2a3.8,3.8,0,1,1-.69-5.33A3.81,3.81,0,0,1,23.93,57.2Z"/><circle cx="63.29" cy="77.17" r="19.06" transform="translate(-35.56 63.44) rotate(-42.73)"/><path class="cls-7" d="M66.6,88.41a10.08,10.08,0,1,1-1.81-14.13A10.07,10.07,0,0,1,66.6,88.41Z"/><circle class="cls-8" cx="17.15" cy="52.38" r="3.49"/><circle class="cls-6" cx="63.29" cy="77.17" r="17.36" transform="translate(-36.47 80.2) rotate(-52.38)"/><path d="M60.46,85.85a3.8,3.8,0,1,1-.69-5.33A3.81,3.81,0,0,1,60.46,85.85Z"/><path class="cls-8" d="M56.32,83a3.49,3.49,0,1,1-.63-4.9A3.5,3.5,0,0,1,56.32,83Z"/><path class="cls-5" d="M77.66,70.15A15.6,15.6,0,0,0,73,64.38,15.79,15.79,0,0,0,48.37,72,22.64,22.64,0,0,1,77.66,70.15Z"/><path class="cls-9" d="M43.85,228.12c27.45,23.11,27.56-45.19,27.56-45.19"/><path class="cls-10" d="M78.4,150.58l1.17-1.51s-17.38,7.21-37,39.45c1.59.61,2.26.21,2.26.21Z"/><path class="cls-3" d="M82.64,152.6a13.21,13.21,0,0,0-4.24-1.91s-14.72,6.37-34.29,37h0A26.46,26.46,0,1,0,82.64,152.6Z"/><path class="cls-4" d="M87.34,189.68h0c.26-.34.54-.66.78-1l.25-.35c.16-.23.32-.46.47-.7l.27-.43c.13-.22.26-.43.38-.65s.18-.31.26-.47.23-.42.33-.63l.25-.5.29-.62.22-.52c.09-.21.17-.41.25-.62l.21-.54.21-.61.19-.55c.07-.23.13-.46.2-.69s.2-.72.28-1.09l.12-.49c0-.23.09-.46.14-.69l.09-.48c0-.23.07-.47.1-.71s.05-.31.07-.46.06-.49.08-.73,0-.3,0-.44,0-.5.05-.75,0-.28,0-.41,0-.52,0-.78,0-.23,0-.34c0-.29,0-.57,0-.85a26.44,26.44,0,0,1-45.38,10c-1.12,1.65-2.25,3.36-3.4,5.17h0c.19.31.4.62.62.93v0c.2.29.41.57.62.85l.15.19.51.65.22.26.49.56.26.28c.16.18.32.35.49.52l.28.28.51.5.29.27.57.51c.09.07.17.16.26.24.28.23.56.48.85.7h0a26.41,26.41,0,0,0,11.94,5.18,24.05,24.05,0,0,0,2.54.28,23.56,23.56,0,0,0,2.52,0A26.4,26.4,0,0,0,87.34,189.68Z"/><circle class="cls-11" cx="35.95" cy="208.92" r="14.45" transform="translate(-87.28 36.43) rotate(-25.78)"/><path class="cls-12" d="M2.83,192.65a15.72,15.72,0,1,1,19,11.47A15.73,15.73,0,0,1,2.83,192.65Z"/><path class="cls-3" d="M54.19,231.65a21.32,21.32,0,0,1-29.8-3.56L6.14,205.43,39.62,179.2l18.26,22.66A21.32,21.32,0,0,1,54.19,231.65Z"/><path class="cls-4" d="M54.19,231.65A21.2,21.2,0,0,1,48.1,235c.26-.19.52-.38.78-.59a21.31,21.31,0,0,0,3.69-29.78L35,182.81l4.61-3.61,18.26,22.66A21.32,21.32,0,0,1,54.19,231.65Z"/><path class="cls-3" d="M6.15,205.41c-1.76-2.26,4.25-10,13.49-17.22s18.24-11.14,20-8.87Z"/><path class="cls-4" d="M39.64,179.32,35.18,183s-3.66-2.42-11.86,2.46C31.17,180.05,38.11,177.36,39.64,179.32Z"/><path class="cls-3" d="M97.74,47.86s7.66,7.44,1.35,12S100.59,53.08,97.74,47.86Z"/><rect class="cls-2" x="40.14" y="18.59" width="66.91" height="14.37" rx="4.4" ry="4.4" transform="translate(31.14 -39.63) rotate(37.71)"/><rect class="cls-12" x="46.07" y="24.16" width="55.68" height="3.14" rx="1.05" ry="1.05" transform="translate(31.19 -39.83) rotate(37.71)"/><path class="cls-13" d="M2.39,63.36s26.12,42.46,57.7,44.88"/><path class="cls-13" d="M44.06,108.42S24,119.33,12.65,107.27s-1.06-27.7-1.06-27.7"/><path class="cls-14" d="M0,127.69a1.09,1.09,0,0,1,0-.18v-13c0-.07,0-.14,0-.21a3.91,3.91,0,0,1,.78.42c1.68,1,3.33,2,5,3.09,1.26.83,2.51,1.67,3.73,2.54.85.61,1.7,1.23,2.53,1.86.63.48,1.24,1,1.83,1.49.75.65,1.5,1.32,2.19,2a35.35,35.35,0,0,1,2.68,3.06A27.93,27.93,0,0,1,21.43,133a23.38,23.38,0,0,1,1.22,2.76,16.94,16.94,0,0,1,1.06,5.07c0,.27,0,.54,0,.81a15.8,15.8,0,0,1-.4,3.56,16.53,16.53,0,0,1-1.67,4.35,21.23,21.23,0,0,1-1.8,2.71,15.86,15.86,0,0,1-2,2.15,13.43,13.43,0,0,1-2.77,2,16.22,16.22,0,0,1-4.46,1.52,18,18,0,0,1-2.21.27,20.34,20.34,0,0,1-2.21,0c-.71,0-1.42-.1-2.13-.19a34.06,34.06,0,0,1-3.6-.68,1.38,1.38,0,0,0-.45-.08A1.69,1.69,0,0,1,0,157V146.67c0-.08,0-.16,0-.25a7.67,7.67,0,0,0,1.42-.4,8.27,8.27,0,0,0,2.64-1.56,10.46,10.46,0,0,0,1.66-1.92,8.17,8.17,0,0,0,1.64-5.32,7.24,7.24,0,0,0-.31-1.67,11.35,11.35,0,0,0-2.71-4.28,24.25,24.25,0,0,0-3.52-3A4.52,4.52,0,0,0,0,127.69Z"/><path class="cls-14" d="M0,173.34c0-.07,0-.14,0-.21v-11c0-.07,0-.15,0-.23a12.93,12.93,0,0,1,.67,2,16.3,16.3,0,0,1,.5,2.67,14.59,14.59,0,0,1,0,2.56,12,12,0,0,1-.7,3.13A7,7,0,0,1,0,173.34Z"/></g></g></svg>