<svg xmlns="http://www.w3.org/2000/svg" viewBox="0 0 484.94 322.58"><defs><style>.cls-1{opacity:0.31;}.cls-10,.cls-13,.cls-2{fill:#4aa5ff;}.cls-2{opacity:0.28;}.cls-11,.cls-3,.cls-4,.cls-7,.cls-8{fill:#fff;}.cls-11,.cls-3,.cls-4,.cls-8,.cls-9{stroke:#cecece;}.cls-11,.cls-12,.cls-3,.cls-4,.cls-5,.cls-6,.cls-8{stroke-linecap:round;stroke-linejoin:round;}.cls-3{stroke-width:2.82px;}.cls-4{stroke-width:4.23px;}.cls-12,.cls-5,.cls-6,.cls-9{fill:none;}.cls-12,.cls-5,.cls-6{stroke:#4aa5ff;}.cls-5{stroke-width:4.94px;}.cls-10,.cls-12,.cls-5{opacity:0.17;}.cls-6{stroke-width:3px;}.cls-8,.cls-9{stroke-width:3.53px;}.cls-9{stroke-miterlimit:10;}.cls-11{stroke-width:5.3px;}.cls-12{stroke-width:6.18px;}.cls-13{opacity:0.22;}</style></defs><title>img-semregistros</title><g id="Camada_2" data-name="Camada 2"><g id="Camada_4" data-name="Camada 4"><g class="cls-1"><rect class="cls-2" x="220.82" y="222.01" width="202.72" height="32.25" rx="16.13" ry="16.13" transform="translate(-68.96 324.86) rotate(-48.97)"/><rect class="cls-2" x="311.5" y="201.54" width="202.72" height="32.25" rx="16.13" ry="16.13" transform="translate(-22.36 386.23) rotate(-48.97)"/><rect class="cls-2" x="190.32" y="37.95" width="90.02" height="32.25" rx="16.13" ry="16.13" transform="translate(40.06 196.11) rotate(-48.97)"/><rect class="cls-2" x="29.36" y="230.9" width="110.1" height="32.25" rx="16.13" ry="16.13" transform="translate(-157.35 148.54) rotate(-48.97)"/><rect class="cls-2" x="54.83" y="64.05" width="110.1" height="32.25" rx="16.13" ry="16.13" transform="translate(-22.73 110.44) rotate(-48.97)"/><rect class="cls-2" x="145.73" y="284.14" width="48.67" height="32.25" rx="16.13" ry="16.13" transform="translate(-168.08 231.45) rotate(-48.97)"/><rect class="cls-2" x="-3.45" y="176.78" width="52.33" height="32.25" rx="16.13" ry="16.13" transform="translate(-137.72 83.41) rotate(-48.97)"/><rect class="cls-2" x="315.37" y="78.46" width="110.1" height="32.25" rx="16.13" ry="16.13" transform="translate(55.9 311.93) rotate(-48.97)"/><rect class="cls-2" x="336.35" y="5.4" width="46.58" height="32.25" rx="16.13" ry="16.13" transform="translate(107.31 278.7) rotate(-48.97)"/></g><rect class="cls-3" x="64.8" y="67.47" width="151.79" height="195.22" rx="13.13" ry="13.13" transform="translate(-43.6 50.7) rotate(-17.73)"/><line class="cls-4" x1="85.64" y1="133.36" x2="167.13" y2="107.3"/><line class="cls-4" x1="90.13" y1="147.4" x2="171.62" y2="121.34"/><line class="cls-5" x1="81.15" y1="119.32" x2="106.59" y2="111.18"/><rect class="cls-3" x="268.35" y="67.47" width="151.79" height="195.22" rx="13.13" ry="13.13" transform="translate(621.85 427.17) rotate(-162.27)"/><line class="cls-4" x1="399.3" y1="133.36" x2="317.81" y2="107.3"/><line class="cls-4" x1="394.81" y1="147.4" x2="313.32" y2="121.34"/><line class="cls-5" x1="403.79" y1="119.32" x2="378.35" y2="111.18"/><circle class="cls-6" cx="21.33" cy="167.7" r="5"/><circle class="cls-6" cx="447.98" cy="225.41" r="5"/><line class="cls-6" x1="465.34" y1="99.79" x2="475.23" y2="109.67"/><line class="cls-6" x1="465.34" y1="109.67" x2="475.23" y2="99.79"/><line class="cls-6" x1="130.97" y1="30.42" x2="140.85" y2="40.3"/><line class="cls-6" x1="130.97" y1="40.3" x2="140.85" y2="30.42"/><rect class="cls-6" x="288.99" y="301.83" width="10.33" height="10.33" transform="translate(-130.92 297.92) rotate(-45)"/><rect class="cls-6" x="60.84" y="256.64" width="10.33" height="10.33" transform="translate(-165.79 123.36) rotate(-45)"/><rect class="cls-6" x="309.41" y="21.91" width="10.33" height="10.33" transform="translate(72.99 230.37) rotate(-45)"/><path class="cls-7" d="M203,43.26,147.74,98.09l52.7,1.7Z"/><path class="cls-8" d="M322.94,42.37H203v34a20.84,20.84,0,0,1-20.83,20.83H147.74V272.48A14.25,14.25,0,0,0,162,286.74H322.94a14.25,14.25,0,0,0,14.26-14.26V56.64A14.26,14.26,0,0,0,322.94,42.37Z"/><line class="cls-9" x1="147.74" y1="97.21" x2="202.98" y2="42.37"/><path class="cls-10" d="M149.5,98.9h29.81L149.5,133.13Z"/><line class="cls-11" x1="185.35" y1="230.41" x2="292.44" y2="230.41"/><line class="cls-11" x1="185.35" y1="248.86" x2="292.44" y2="248.86"/><line class="cls-12" x1="185.35" y1="211.96" x2="218.79" y2="211.96"/><circle class="cls-13" cx="206.3" cy="125.82" r="4.42"/><circle class="cls-13" cx="278.64" cy="124.94" r="4.42"/><path class="cls-12" d="M206.49,149.77c26.3,16.74,45.77,18.34,72.48,1.47"/></g></g></svg>