<svg xmlns="http://www.w3.org/2000/svg" viewBox="0 0 484.94 322.58"><defs><style>.cls-1{opacity:0.31;}.cls-2{fill:#aaa;opacity:0.28;}.cls-3,.cls-4,.cls-5{fill:#fff;}.cls-3,.cls-5,.cls-6{stroke:#cecece;}.cls-10,.cls-3,.cls-5{stroke-linecap:round;stroke-linejoin:round;}.cls-3{stroke-width:2.82px;}.cls-5,.cls-6{stroke-width:3.53px;}.cls-10,.cls-6{fill:none;}.cls-6{stroke-miterlimit:10;}.cls-7,.cls-8{fill:#777;}.cls-7{opacity:0.12;}.cls-8,.cls-9{opacity:0.55;}.cls-10{stroke:#777;stroke-width:5px;opacity:0.52;}</style></defs><title>img-semresultados</title><g id="Camada_2" data-name="Camada 2"><g id="Camada_4" data-name="Camada 4"><g class="cls-1"><rect class="cls-2" x="220.82" y="222.01" width="202.72" height="32.25" rx="16.13" ry="16.13" transform="translate(-68.96 324.86) rotate(-48.97)"/><rect class="cls-2" x="311.5" y="201.54" width="202.72" height="32.25" rx="16.13" ry="16.13" transform="translate(-22.36 386.23) rotate(-48.97)"/><rect class="cls-2" x="190.32" y="37.95" width="90.02" height="32.25" rx="16.13" ry="16.13" transform="matrix(0.66, -0.75, 0.75, 0.66, 40.06, 196.11)"/><rect class="cls-2" x="29.36" y="230.9" width="110.1" height="32.25" rx="16.13" ry="16.13" transform="matrix(0.66, -0.75, 0.75, 0.66, -157.35, 148.54)"/><rect class="cls-2" x="54.83" y="64.05" width="110.1" height="32.25" rx="16.13" ry="16.13" transform="translate(-22.73 110.44) rotate(-48.97)"/><rect class="cls-2" x="145.73" y="284.14" width="48.67" height="32.25" rx="16.13" ry="16.13" transform="translate(-168.08 231.45) rotate(-48.97)"/><rect class="cls-2" x="-3.45" y="176.78" width="52.33" height="32.25" rx="16.13" ry="16.13" transform="translate(-137.72 83.41) rotate(-48.97)"/><rect class="cls-2" x="315.37" y="78.46" width="110.1" height="32.25" rx="16.13" ry="16.13" transform="matrix(0.66, -0.75, 0.75, 0.66, 55.9, 311.93)"/><rect class="cls-2" x="336.35" y="5.4" width="46.58" height="32.25" rx="16.13" ry="16.13" transform="translate(107.31 278.7) rotate(-48.97)"/></g><rect class="cls-3" x="64.8" y="67.47" width="151.79" height="195.22" rx="13.13" ry="13.13" transform="translate(-43.6 50.7) rotate(-17.73)"/><rect class="cls-3" x="268.35" y="67.47" width="151.79" height="195.22" rx="13.13" ry="13.13" transform="translate(621.85 427.17) rotate(-162.27)"/><circle class="cls-3" cx="21.33" cy="167.7" r="5"/><circle class="cls-3" cx="447.98" cy="225.41" r="5"/><line class="cls-3" x1="465.34" y1="99.79" x2="475.23" y2="109.67"/><line class="cls-3" x1="465.34" y1="109.67" x2="475.23" y2="99.79"/><line class="cls-3" x1="130.97" y1="30.42" x2="140.85" y2="40.3"/><line class="cls-3" x1="130.97" y1="40.3" x2="140.85" y2="30.42"/><rect class="cls-3" x="288.99" y="301.83" width="10.33" height="10.33" transform="translate(-130.92 297.92) rotate(-45)"/><rect class="cls-3" x="60.84" y="256.64" width="10.33" height="10.33" transform="translate(-165.79 123.36) rotate(-45)"/><rect class="cls-3" x="309.41" y="21.91" width="10.33" height="10.33" transform="translate(72.99 230.37) rotate(-45)"/><path class="cls-4" d="M203,43.26,147.74,98.09l52.7,1.7Z"/><path class="cls-5" d="M322.94,42.37H203v34a20.84,20.84,0,0,1-20.83,20.83H147.74V272.48A14.25,14.25,0,0,0,162,286.74H322.94a14.25,14.25,0,0,0,14.26-14.26V56.64A14.26,14.26,0,0,0,322.94,42.37Z"/><line class="cls-6" x1="147.74" y1="97.21" x2="202.98" y2="42.37"/><path class="cls-7" d="M149.5,98.9h29.81L149.5,133.13Z"/><circle class="cls-8" cx="206.3" cy="125.82" r="4.42"/><circle class="cls-8" cx="278.64" cy="124.94" r="4.42"/><g class="cls-9"><path class="cls-10" d="M206.49,163.13c26.3-16.74,45.77-18.34,72.48-1.46"/></g></g></g></svg>