<svg xmlns="http://www.w3.org/2000/svg" viewBox="0 0 1152 666">
  <g fill="none" stroke="#FFF">
    <path stroke-width="21" d="M273 158l-61 36a22 22 0 0 1-22 0l-62-35a22 22 0 0 1-12-19V69a22 22 0 0 1 11-20l61-36a22 22 0 0 1 23 0l62 35a22 22 0 0 1 11 20v71a22 22 0 0 1-11 19z"/>
    <path stroke-width="15" d="M138 299l-41 24a15 15 0 0 1-15 0l-41-23a15 15 0 0 1-7-13l-1-48a15 15 0 0 1 8-12l41-24a15 15 0 0 1 14-1l42 24a15 15 0 0 1 7 13l1 47a15 15 0 0 1-8 13z"/>
    <path stroke-width="13" d="M59 161l-21 12a7 7 0 0 1-7 0l-21-12a7 7 0 0 1-3-6l-1-24a7 7 0 0 1 4-6l21-12a7 7 0 0 1 7 0l21 11a7 7 0 0 1 3 7v23a7 7 0 0 1-3 7z"/>
  </g>
  <path fill="#FFF" d="M1109 207h-67l-21 43h-38l69-133c12-24 27-27 44-27s31 6 34 27l22 133h-36l-7-43zm-14-87c0-3-2-4-4-4s-2 1-4 4l-31 61h49l-10-61zm-262-4h-52l-23 132h-36l24-132h-50l4-26h138l-5 26zM650 250h-53q-24 0-37-10c-9-6-13-15-13-25a59 59 0 0 1 0-8l13-72q3-20 20-32t45-11h54l-5 26h-53c-9 0-16 2-20 6-3 2-5 7-6 14l-3 17h71l-5 26h-70l-5 24c-.15 2-.15 4 0 6 0 9 6 13 19 13h56l-3 18-1 5c0 2-2 3-4 3zm-194-1h-73l27-151a275 275 0 0 1 69-10c25 0 53 11 53 41 0 18-14 29-31 35v1q26 11 26 31c0 15-6 29-20 39s-31 14-51 14zm40-117c0-28-37-18-54-17l-7 39h34c7 0 14-2 19-6s8-10 8-16zm-5 65c0-11-7-17-21-17h-39l-8 43h37c10 0 18-2 23-7s8-11 8-19zm393-42h61l11-63h35l-27 154c0 2-2 4-4 4h-32l12-69h-60l-12 69h-36l28-158h35l-11 63z"/>
  <g fill="none" stroke="#222">
    <path stroke-width="21" d="M273 492.25l-61 36a22 22 0 0 1-22 0l-62-35a22 22 0 0 1-12-19v-71a22 22 0 0 1 11-20l61-36a22 22 0 0 1 23 0l62 35a22 22 0 0 1 11 20v71a22 22 0 0 1-11 19z"/>
    <path stroke-width="15" d="M138 633.25l-41 24a15 15 0 0 1-15 0l-41-23a15 15 0 0 1-7-13l-1-48a15 15 0 0 1 8-12l41-24a15 15 0 0 1 14-1l42 24a15 15 0 0 1 7 13l1 47a15 15 0 0 1-8 13z"/>
    <path stroke-width="13" d="M59 495.25l-21 12a7 7 0 0 1-7 0l-21-12a7 7 0 0 1-3-6l-1-24a7 7 0 0 1 4-6l21-12a7 7 0 0 1 7 0l21 11a7 7 0 0 1 3 7v23a7 7 0 0 1-3 7z"/>
  </g>
  <path fill="#222" d="M1109 541.25h-67l-21 43h-38l69-133c12-24 27-27 44-27s31 6 34 27l22 133h-36l-7-43zm-14-87c0-3-2-4-4-4s-2 1-4 4l-31 61h49l-10-61zm-262-4h-52l-23 132h-36l24-132h-50l4-26h138l-5 26zm-183 134h-53q-24 0-37-10c-9-6-13-15-13-25a59 59 0 0 1 0-8l13-72q3-20 20-32t45-11h54l-5 26h-53c-9 0-16 2-20 6-3 2-5 7-6 14l-3 17h71l-5 26h-70l-5 24c-.15 2-.15 4 0 6 0 9 6 13 19 13h56l-3 18-1 5c0 2-2 3-4 3zm-194-1h-73l27-151a275 275 0 0 1 69-10c25 0 53 11 53 41 0 18-14 29-31 35v1q26 11 26 31c0 15-6 29-20 39s-31 14-51 14zm40-117c0-28-37-18-54-17l-7 39h34c7 0 14-2 19-6s8-10 8-16zm-5 65c0-11-7-17-21-17h-39l-8 43h37c10 0 18-2 23-7s8-11 8-19zm393-42h61l11-63h35l-27 154c0 2-2 4-4 4h-32l12-69h-60l-12 69h-36l28-158h35l-11 63z"/>
</svg>
