<svg xmlns="http://www.w3.org/2000/svg" viewBox="0 0 296.8 251.78"><defs><style>.cls-1{fill:#71c3dd;}.cls-2{fill:#fff;}</style></defs><title>logo-nov</title><g id="Camada_2" data-name="Camada 2"><g id="Camada_1-2" data-name="Camada 1"><g id="Camada_1-2-2" data-name="Camada 1-2"><rect id="Retângulo_3769" data-name="Retângulo 3769" class="cls-1" x="91.66" y="106.65" width="47.68" height="116.24" transform="translate(-82.68 129.93) rotate(-45)"/><path class="cls-2" d="M247.9,119.72c3.06,1.55,4.76,2.35,6.4,3.25,4.64,2.57,9.47,4.88,13.85,7.84,16.93,11.42,23.41,27.41,20.69,47.56-4,29.37-21.21,48.42-46.92,60.86-17.92,8.66-37.1,12.31-56.87,12.43-37.93.22-75.86.07-113.8.05-1.88,0-3.77-.27-6.18-.46,2.13-12.49,4.15-24.59,6.26-36.67Q83.39,145.39,95.49,76.2c3.29-18.77,6.72-37.53,9.82-56.33.6-3.67,2-5.29,5.63-6.24a388,388,0,0,1,60.5-11C186.08,1.23,200.81.29,215.51,0a106,106,0,0,1,39.06,6.7c9.61,3.57,18.4,8.49,25.75,15.74C301.16,43,302.43,78.11,283,98.53c-7.27,7.64-16.21,12.89-25.83,17C254.54,116.71,252,117.9,247.9,119.72Zm-120.69,91.1c2.25.24,3.66.52,5.07.52,19.32,0,38.65.23,58-.12a57.2,57.2,0,0,0,16.3-2.92c18.25-5.94,28.91-23.37,26.44-42.41-1.45-11.13-7.89-18.63-18.88-21.18A67,67,0,0,0,199.76,143c-17.87-.2-35.75-.1-53.62-.06-2.1,0-4.19.3-6.76.5ZM157.21,43c-3.33,11.22-10.11,54.78-9.39,60.34a16.68,16.68,0,0,0,2.71.46c17.16,0,34.33.38,51.48-.08,11.23-.3,21-4.77,29.08-12.91,9-9.13,11.51-19.84,8-32-3.34-11.61-12.07-17-23.25-19.13-19.91-3.74-39.34.53-58.66,3.32Z"/><g id="Grupo_3919" data-name="Grupo 3919"><g id="Grupo_3918" data-name="Grupo 3918"><path id="Caminho_2782" data-name="Caminho 2782" class="cls-1" d="M85.9,15.9A64.19,64.19,0,0,0,53.53,135.5L0,189l33.73,33.72L121,135.53A72.18,72.18,0,0,0,147.29,99a70.37,70.37,0,0,0,2.83-18.9A64.17,64.17,0,0,0,86,15.92h0ZM97.57,94.67A65.17,65.17,0,0,1,85.9,106.35,64.9,64.9,0,0,1,74.22,94.67a29.37,29.37,0,0,1-8.75-17.5,20.47,20.47,0,0,1,40.84,0A29.3,29.3,0,0,1,97.57,94.67Z"/></g></g></g></g></g></svg>