<svg xmlns="http://www.w3.org/2000/svg" viewBox="0 0 296.8 251.76"><defs><style>.cls-1{fill:#d779a8;}.cls-2{fill:#fff;}</style></defs><title>logo-campanha-out</title><g id="Camada_2" data-name="Camada 2"><g id="Camada_1-2" data-name="Camada 1"><rect id="Retângulo_3769" data-name="Retângulo 3769" class="cls-1" x="91.66" y="106.64" width="47.68" height="116.24" transform="translate(-82.67 129.92) rotate(-45)"/><path class="cls-2" d="M247.9,119.7c3.06,1.55,4.76,2.35,6.4,3.25,4.64,2.57,9.47,4.88,13.85,7.84,16.93,11.42,23.41,27.41,20.69,47.56-4,29.37-21.21,48.42-46.92,60.86-17.92,8.66-37.1,12.31-56.87,12.43-37.93.22-75.86.07-113.8.05-1.88,0-3.77-.27-6.18-.46,2.13-12.49,4.15-24.59,6.26-36.67Q83.39,145.37,95.49,76.18c3.29-18.77,6.72-37.53,9.82-56.33.6-3.67,2-5.29,5.63-6.24a389.17,389.17,0,0,1,60.5-11C186.08,1.21,200.81.27,215.51,0A106.23,106.23,0,0,1,254.57,6.7c9.61,3.57,18.4,8.49,25.75,15.74C301.16,43,302.43,78.09,283,98.51c-7.27,7.64-16.21,12.89-25.83,17C254.54,116.69,252,117.88,247.9,119.7ZM127.21,210.8c2.25.24,3.66.52,5.07.52,19.32,0,38.65.23,58-.12a57.17,57.17,0,0,0,16.3-2.92c18.25-5.94,28.91-23.37,26.44-42.41-1.45-11.13-7.89-18.63-18.88-21.18A67.27,67.27,0,0,0,199.76,143c-17.87-.2-35.75-.1-53.62-.06-2.1,0-4.19.3-6.76.5Zm30-167.86c-3.33,11.22-10.11,54.78-9.39,60.34a16,16,0,0,0,2.71.46c17.16,0,34.33.38,51.48-.08,11.23-.3,21-4.77,29.08-12.91,9-9.13,11.51-19.84,8-32-3.34-11.61-12.07-17-23.25-19.13C195.93,35.88,176.5,40.15,157.18,42.94Z"/><g id="Grupo_3919" data-name="Grupo 3919"><g id="Grupo_3918" data-name="Grupo 3918"><path id="Caminho_2782" data-name="Caminho 2782" class="cls-1" d="M85.9,15.88a64.19,64.19,0,0,0-32.37,119.6L0,189l33.73,33.72L121,135.51A72.23,72.23,0,0,0,147.29,99a70.37,70.37,0,0,0,2.83-18.9,64.18,64.18,0,0,0-64.18-64.2ZM97.57,94.65A64.84,64.84,0,0,1,85.9,106.33,64.58,64.58,0,0,1,74.22,94.65a29.34,29.34,0,0,1-8.75-17.5,20.47,20.47,0,0,1,40.84,0,29.3,29.3,0,0,1-8.74,17.5Z"/></g></g></g></g></svg>