<svg xmlns="http://www.w3.org/2000/svg" viewBox="0 0 366.73 258.96"><defs><style>.cls-1{fill:#f5f7fa;}.cls-2{fill:#fff;}.cls-2,.cls-3,.cls-4{stroke:#7faadc;stroke-linecap:round;stroke-linejoin:round;stroke-width:3px;}.cls-3{fill:none;}.cls-4{fill:#ecf7fb;}.cls-5{fill:#a7c4e7;}</style></defs><title>notfound</title><g id="Camada_2" data-name="Camada 2"><g id="Camada_1-2" data-name="Camada 1"><ellipse class="cls-1" cx="183.37" cy="217.89" rx="183.37" ry="41.08"/><path class="cls-2" d="M167.53,243.53,86.53,199a12.86,12.86,0,0,1-2.84-1.83,12.65,12.65,0,0,1-4.21-7.5q-2.24-13.78-3.73-28.88a457.48,457.48,0,0,1-2-54.15l239.85-1.85a493.6,493.6,0,0,1-3.21,52.32c-1.68,14.67-3.93,28.44-6.5,41.23a14.27,14.27,0,0,1-4.75,8.22,15.22,15.22,0,0,1-4.22,2.53c-58.93,19.72-102.05,33.76-109,35.69a28,28,0,0,1-9.42,1A26.69,26.69,0,0,1,167.53,243.53Z"/><path class="cls-1" d="M177.62,124.62a61.7,61.7,0,0,0,38.53,39.72l94.5-31.5a105.7,105.7,0,0,0-9.5-60.49Z"/><path class="cls-2" d="M174.24,112.49a56.27,56.27,0,0,0,37.16,40.1l128.75-45.75a75.85,75.85,0,0,1-25.27-23.57,74.79,74.79,0,0,1-9.69-21Z"/><path class="cls-1" d="M174.41,119.91a146,146,0,0,1-25.92,29.43,145.32,145.32,0,0,1-28,19L76.24,143.85a120.78,120.78,0,0,1,.67-24.63A125.23,125.23,0,0,1,91.83,74.56Z"/><path class="cls-2" d="M174.91,116a109.14,109.14,0,0,1-46.51,41.05L24.29,95.78A76.46,76.46,0,0,0,53.46,77.89,73,73,0,0,0,69.54,54.08Z"/><line class="cls-3" x1="174.83" y1="116.59" x2="174.83" y2="245.02"/><path class="cls-4" d="M305.65,63.34a7.28,7.28,0,0,1-.58,6,7.17,7.17,0,0,1-3.92,3L180.51,116.92a18.45,18.45,0,0,1-5.85.61,18.08,18.08,0,0,1-5.89-1.35L71.24,61a5.25,5.25,0,0,1-2.61-3.53c-.3-2.23,1.4-4.57,4.21-5.4C138,24.62,185.72,4.7,190.87,2.68a16,16,0,0,1,6.35-1.17,16.33,16.33,0,0,1,7.3,2.06c4.94,2.66,43.92,24.71,97.3,55.27A7.93,7.93,0,0,1,305.65,63.34Z"/><line class="cls-3" x1="197.27" y1="2.28" x2="197.27" y2="109.35"/><path class="cls-5" d="M237.46,189.62l-3,1,.18,5.5-3.46,1.15-.18-5.5-10.09,3.36-.1-3.12,9.55-20,3.46-1.15.53,16.41,3-1Zm-6.54-1.23-.2-6.33q-.12-3.37,0-5.58l-.12,0a29,29,0,0,1-1.24,3.2l-5.19,10.93Z"/><path class="cls-5" d="M254.11,176.91q.21,6.56-1.54,10.37a9.05,9.05,0,0,1-5.55,5.07c-2.46.81-4.36.34-5.7-1.44s-2.07-4.78-2.21-9q-.21-6.67,1.53-10.45a9.07,9.07,0,0,1,5.54-5q3.7-1.23,5.71,1.45T254.11,176.91Zm-11.41,3.78c.12,3.44.5,5.79,1.17,7.06a2.29,2.29,0,0,0,3,1.22,4.69,4.69,0,0,0,2.91-3.23,22.88,22.88,0,0,0,.71-7.64q-.17-5.07-1.18-7a2.3,2.3,0,0,0-3.06-1.27A4.64,4.64,0,0,0,243.4,173,23,23,0,0,0,242.7,180.69Z"/><path class="cls-5" d="M272.78,177.88l-3,1,.18,5.5-3.46,1.15-.18-5.5-10.09,3.35-.1-3.12,9.55-20,3.46-1.14.53,16.41,3-1Zm-6.54-1.22-.21-6.33c-.07-2.25-.08-4.11,0-5.58l-.12,0a31.16,31.16,0,0,1-1.24,3.19l-5.19,10.93Z"/></g></g></svg>