<svg xmlns="http://www.w3.org/2000/svg" viewBox="0 0 390.14 245.79"><defs><style>.cls-1{fill:#f5f7fa;}.cls-2,.cls-9{fill:#ecf7fb;}.cls-2,.cls-5{stroke:#7faadc;stroke-width:3px;}.cls-10,.cls-2,.cls-3,.cls-5,.cls-6,.cls-8{stroke-linecap:round;stroke-linejoin:round;}.cls-3,.cls-4,.cls-5,.cls-6,.cls-8{fill:#fff;}.cls-3{stroke:#e1e3e6;}.cls-10,.cls-6,.cls-8{stroke:#a7c4e7;}.cls-6{stroke-width:2px;}.cls-7{fill:#cfdff2;}.cls-10,.cls-8{stroke-width:5px;}.cls-10{fill:none;}</style></defs><title>pesquisa</title><g id="Camada_2" data-name="Camada 2"><g id="Camada_1-2" data-name="Camada 1"><ellipse class="cls-1" cx="195.07" cy="204.08" rx="195.07" ry="39.86"/><path class="cls-2" d="M301.19,24a15.75,15.75,0,0,0-10.54-4.47H187.75V16.78A15.28,15.28,0,0,0,172.47,1.5H113.68A15.28,15.28,0,0,0,98.4,16.78v2.75H88.78a15.48,15.48,0,0,0-10,3.9c-3.54,3.29-4.45,7.93-4.73,10.83q2.06,21.59,4.12,43.17H301.6q1.86-21.59,3.73-43.17C305.13,31.62,304.38,27.29,301.19,24Z"/><rect class="cls-3" x="90.35" y="28.94" width="198.72" height="14.69" rx="1.18" ry="1.18"/><rect class="cls-3" x="84.5" y="35.38" width="210.42" height="14.8" rx="1.18" ry="1.18"/><rect class="cls-3" x="78.64" y="41.8" width="222.15" height="14.97" rx="1.18" ry="1.18"/><path class="cls-4" d="M301.66,50.14h-224a14.83,14.83,0,0,0-15,14.69q7.49,60.32,15,120.62a13.92,13.92,0,0,0,14,13.8H287.61a13.93,13.93,0,0,0,14.05-13.8q7.47-60.31,14.95-120.62A14.83,14.83,0,0,0,301.66,50.14Z"/><path class="cls-1" d="M301.66,50.61c-20.61-.09-41.22-.12-61.82.1s-41.22.56-61.82.89-41.21.55-61.82.83l-30.91.24-7.71.06a12.66,12.66,0,0,0-6.09,1.69,12,12,0,0,0-6,10.41l0-.34L81.29,185c0,.09,0,.17,0,.26v.19a10,10,0,0,0,1.53,5.17,10.41,10.41,0,0,0,4,3.65,10.7,10.7,0,0,0,2.58.91,12.18,12.18,0,0,0,1.35.19c.48,0,.84.06,1.54,0l7.48-.07,30-.26c20-.18,39.94-.46,59.91-.53l30-.14c10,0,20,0,29.95.09l15,.09,15,.19,7.49.1c.71,0,1,0,1.49,0s.86-.09,1.29-.18a12.08,12.08,0,0,0,2.46-.83,9.78,9.78,0,0,0,5.47-8.4v-.19a2.64,2.64,0,0,1,0-.29c1.43-10,3.06-20,4.58-30.06l4.65-30,4.6-30.05q2.21-15,4.32-30.08v.09a13.9,13.9,0,0,0-4.12-10A14.61,14.61,0,0,0,301.66,50.61Zm0-.93A15.64,15.64,0,0,1,312.59,54a15.17,15.17,0,0,1,4.73,10.85v.09q-1.65,15.1-3.16,30.23l-2.88,30.26-2.82,30.26c-1,10.09-1.84,20.19-2.9,30.26l0-.48a17.66,17.66,0,0,1-2.47,9.25,18.17,18.17,0,0,1-6.91,6.68,18.42,18.42,0,0,1-4.55,1.73,21.84,21.84,0,0,1-2.4.4c-.79.05-1.71.11-2.25.1l-7.49.1-15,.19-15,.09c-10,.09-20,.07-29.95.09l-30-.14c-20-.06-39.94-.35-59.91-.53l-30-.26-7.48-.06c-.55,0-1.45-.05-2.21-.1a20.73,20.73,0,0,1-2.34-.38A18.54,18.54,0,0,1,83.32,201a17.88,17.88,0,0,1-6.8-6.46A17.4,17.4,0,0,1,74,185.45l0,.45L60,65.17V65.1a2.35,2.35,0,0,1,0-.27,17.19,17.19,0,0,1,2.46-8.73,17.73,17.73,0,0,1,2.82-3.58,18.54,18.54,0,0,1,3.65-2.7,17.83,17.83,0,0,1,8.67-2.26l7.74,0,30.91.25c20.61.28,41.21.45,61.82.82s41.21.72,61.82.89S281.05,49.76,301.66,49.68Z"/><path class="cls-5" d="M304.2,48.93h-229A15.29,15.29,0,0,0,59.94,64.21Q67.59,127,75.23,189.72a14.36,14.36,0,0,0,14.35,14.36H289.84a14.36,14.36,0,0,0,14.36-14.36Q311.84,127,319.48,64.21A15.28,15.28,0,0,0,304.2,48.93Z"/><path class="cls-6" d="M294.29,186.13a73.79,73.79,0,0,1,6.19-5.35l45.94,45.94a10.57,10.57,0,0,1,0,15h0a10.57,10.57,0,0,1-15,0l-46.21-46.2C288.31,192.43,291.31,189.34,294.29,186.13Z"/><path class="cls-7" d="M303.33,195.5a68.23,68.23,0,0,1,5.61-4.85l9.61,9.61a44.24,44.24,0,0,1-6,7.54,43.63,43.63,0,0,1-7.53,6L295.14,204C297.92,201.2,300.64,198.41,303.33,195.5Z"/><circle class="cls-8" cx="262.38" cy="155.17" r="57.96"/><path class="cls-9" d="M207.18,137.45c10.09-23.56,31.73-39.14,55.2-39.6,3.26-.06,27.65-.12,44.18,19.8,13.24,15.95,16.35,38.6,8.12,58.84.39-29.39-19.05-54.82-45.67-61.33C246.56,109.67,222.27,118.43,207.18,137.45Z"/><circle class="cls-10" cx="262.38" cy="155.17" r="57.96"/></g></g></svg>