<svg xmlns="http://www.w3.org/2000/svg" viewBox="0 0 303.02 257.37"><defs><style>.cls-1{fill:#ebedf0;}.cls-2{fill:none;}.cls-2,.cls-3{stroke:#7faadc;stroke-linecap:round;stroke-linejoin:round;stroke-width:3px;}.cls-3{fill:#ecf7fb;}</style></defs><title>indicadores</title><g id="Camada_2" data-name="Camada 2"><g id="Camada_1-2" data-name="Camada 1"><path class="cls-1" d="M79.88,162.74h47.57a2,2,0,0,1,2,2v58a0,0,0,0,1,0,0H77.88a0,0,0,0,1,0,0v-58A2,2,0,0,1,79.88,162.74Z"/><path class="cls-1" d="M143.93,132.74H191.5a2,2,0,0,1,2,2v88a0,0,0,0,1,0,0H141.93a0,0,0,0,1,0,0v-88A2,2,0,0,1,143.93,132.74Z"/><path class="cls-1" d="M208,102.74h47.57a2,2,0,0,1,2,2v118a0,0,0,0,1,0,0H206a0,0,0,0,1,0,0v-118A2,2,0,0,1,208,102.74Z"/><line class="cls-2" x1="33.21" y1="1.5" x2="33.21" y2="255.87"/><line class="cls-2" x1="1.5" y1="222.49" x2="301.52" y2="222.49"/><path class="cls-3" d="M262.59,1.55,207.87,16.21a1.42,1.42,0,0,0-.64,2.38l14.18,14.18L173.83,80.35,155.45,62a3.25,3.25,0,0,0-.56-.79l-7.25-7.25a3.1,3.1,0,0,0-1.7-.87,2.21,2.21,0,0,0-.51,0,3.17,3.17,0,0,0-2.25.92L72,125.14a3.14,3.14,0,0,0,0,4.45l7.25,7.25a3.14,3.14,0,0,0,4.45,0L145.3,75.22l26.85,26.86a2.53,2.53,0,0,0,3.57,0l8.14-8.14a2.59,2.59,0,0,0,.47-.68l48.78-48.78,14.18,14.17a1.42,1.42,0,0,0,2.38-.63L264.34,3.29A1.43,1.43,0,0,0,262.59,1.55Z"/></g></g></svg>