<svg xmlns="http://www.w3.org/2000/svg" viewBox="0 0 233.55 238.07"><defs><style>.cls-1,.cls-4{fill:#fff;}.cls-1,.cls-2,.cls-3,.cls-4,.cls-6,.cls-7{stroke:#7faadc;stroke-linecap:round;stroke-linejoin:round;}.cls-1,.cls-2,.cls-6{stroke-width:4px;}.cls-2,.cls-7{fill:none;}.cls-3,.cls-5,.cls-6{fill:#ecf7fb;}.cls-3,.cls-4,.cls-7{stroke-width:3px;}</style></defs><title>notificacoes</title><g id="Camada_2" data-name="Camada 2"><g id="Camada_1-2" data-name="Camada 1"><circle class="cls-1" cx="116.77" cy="208.91" r="27.17"/><circle class="cls-2" cx="116.77" cy="208.91" r="27.17"/><circle class="cls-3" cx="116.77" cy="15.52" r="14.02"/><path class="cls-4" d="M205.92,179.29c-3.48-5.07-3.9-11.16-4.22-15.75-.08-1.09-.1-2-.11-2.64v-61a86.09,86.09,0,0,0-84.8-86.08h0A86.09,86.09,0,0,0,32,99.86v61c0,.64,0,1.55-.11,2.64-.32,4.59-.74,10.68-4.22,15.75a20.33,20.33,0,0,1-8,6.74H214A20.33,20.33,0,0,1,205.92,179.29Z"/><path class="cls-5" d="M34.74,78.69a86.15,86.15,0,0,1,81.93-63.94h0a85.58,85.58,0,0,1,36.46,8.69A154,154,0,0,0,34.74,78.69Z"/><rect class="cls-6" x="2" y="186.03" width="229.55" height="22.88" rx="11.42" ry="11.42"/><path class="cls-7" d="M205.92,179.29c-3.48-5.07-3.9-11.16-4.22-15.75-.08-1.09-.1-2-.11-2.64v-61a86.09,86.09,0,0,0-84.8-86.08h0A86.09,86.09,0,0,0,32,99.86v61c0,.64,0,1.55-.11,2.64-.32,4.59-.74,10.68-4.22,15.75a20.33,20.33,0,0,1-8,6.74H214A20.33,20.33,0,0,1,205.92,179.29Z"/></g></g></svg>