<svg xmlns="http://www.w3.org/2000/svg" viewBox="0 0 232.72 161.95"><defs><style>.cls-1{fill:#e1e3e6;}.cls-2{fill:#fff;stroke-width:4px;}.cls-2,.cls-4{stroke:#7faadc;stroke-linecap:round;stroke-linejoin:round;}.cls-3{fill:#7faadc;}.cls-4{fill:none;stroke-width:8px;}</style></defs><title>off</title><g id="Camada_2" data-name="Camada 2"><g id="Camada_1-2" data-name="Camada 1"><path class="cls-1" d="M0,47.9,21.05,69a133.93,133.93,0,0,1,189.4,0L231.5,47.9C167.62-16,64-16,0,47.9Z"/><path class="cls-1" d="M42.09,90l21,21.05a74.43,74.43,0,0,1,105.22,0l21-21.05A104.3,104.3,0,0,0,42.09,90Z"/><path class="cls-1" d="M84.18,132.08a45.57,45.57,0,0,1,29.18-13c19.27-1,31.91,11,34,13L118.09,161.3a4.32,4.32,0,0,1-2.43.65,4.38,4.38,0,0,1-2.45-.84Z"/><circle class="cls-2" cx="184.48" cy="105.81" r="46.24"/><circle class="cls-3" cx="184.48" cy="128.88" r="5.5"/><line class="cls-4" x1="184.48" y1="80.23" x2="184.48" y2="112.36"/></g></g></svg>