<svg xmlns="http://www.w3.org/2000/svg" viewBox="0 0 234.5 164.95"><defs><style>.cls-1{fill:#ecf7fb;stroke:#7faadc;stroke-linecap:round;stroke-linejoin:round;stroke-width:3px;}</style></defs><title>on</title><g id="Camada_2" data-name="Camada 2"><g id="Camada_1-2" data-name="Camada 1"><path class="cls-1" d="M1.5,49.4,22.55,70.45a133.93,133.93,0,0,1,189.4,0L233,49.4C169.12-14.47,65.48-14.47,1.5,49.4Z"/><path class="cls-1" d="M43.59,91.49l21,21.05a74.43,74.43,0,0,1,105.22,0l21-21.05A104.3,104.3,0,0,0,43.59,91.49Z"/><path class="cls-1" d="M85.68,133.58a45.57,45.57,0,0,1,29.18-13c19.27-1,31.91,11,34,13L119.59,162.8a4.32,4.32,0,0,1-2.43.65,4.38,4.38,0,0,1-2.45-.84Z"/></g></g></svg>