<svg width="254" height="254" viewBox="0 0 254 254" fill="none" xmlns="http://www.w3.org/2000/svg">
<path d="M165.636 183.818L175.106 152C188.742 148.717 199.917 141.646 208.629 130.788C217.341 119.929 221.697 107.303 221.697 92.9091C221.697 76.2424 215.763 61.9748 203.894 50.1061C192.025 38.2374 177.758 32.303 161.091 32.303C146.697 32.303 134.071 36.6591 123.212 45.3712C112.354 54.0833 105.283 65.2576 102 78.8939L70.1818 88.3636C71.4444 64.1212 80.7879 43.6667 98.2121 27C115.636 10.3333 136.596 2 161.091 2C186.343 2 207.808 10.8384 225.485 28.5152C243.162 46.1919 252 67.6566 252 92.9091C252 117.404 243.667 138.364 227 155.788C210.333 173.212 189.879 182.556 165.636 183.818ZM31.9242 252L2 222.076L66.7727 157.303L9.57576 138.364L161.091 92.9091L115.636 244.424L96.697 187.227L31.9242 252Z" fill="#ECF7FB" stroke="#7FAADC" stroke-width="3" stroke-linecap="round" stroke-linejoin="round"/>
</svg>
