<svg xmlns="http://www.w3.org/2000/svg" viewBox="0 0 172.56 171.82"><defs><style>.cls-1{fill:#fff;}.cls-1,.cls-2,.cls-3{stroke:#e0e1e4;stroke-miterlimit:10;stroke-width:4px;}.cls-2,.cls-5{fill:none;}.cls-3{fill:#f4f6f9;}.cls-4{fill:#eef6fa;stroke:#8ba7d8;stroke-width:3px;}.cls-4,.cls-5{stroke-linecap:round;stroke-linejoin:round;}.cls-5{stroke:#adc2e4;stroke-width:5.83px;}</style></defs><title>loginexpirado</title><g id="Camada_2" data-name="Camada 2"><g id="Camada_1-2" data-name="Camada 1"><circle class="cls-1" cx="83.01" cy="83.01" r="81.01"/><circle class="cls-2" cx="83.51" cy="55.7" r="31.73"/><path class="cls-3" d="M83,164a80.78,80.78,0,0,0,61.05-27.8v-8.47a19.08,19.08,0,0,0-.89-5.73,23,23,0,0,0-4.94-7.93c-2.72-2.83-19-15.49-54.72-15.65h-1c-35.77.16-52,12.82-54.73,15.65A22.84,22.84,0,0,0,22.85,122a18.77,18.77,0,0,0-.89,5.73v8.47A80.78,80.78,0,0,0,83,164Z"/><circle class="cls-4" cx="136.7" cy="135.96" r="34.36"/><line class="cls-5" x1="134.88" y1="118.04" x2="134.88" y2="139.59"/><line class="cls-5" x1="135.17" y1="139.8" x2="148.61" y2="139.8"/></g></g></svg>